<svg width="100%" height="100%" viewBox="0 0 512 512" version="1.1" xmlns="http://www.w3.org/2000/svg" style="fill-rule:evenodd;clip-rule:evenodd;stroke-linejoin:round;stroke-miterlimit:2;">
    <g transform="matrix(1.1907,0,0,1.21615,-58.3442,-68.1045)">
        <path d="M479,97.113C479,74.422 460.184,56 437.008,56L90.992,56C67.816,56 49,74.422 49,97.113L49,435.887C49,458.578 67.816,477 90.992,477L437.008,477C460.184,477 479,458.578 479,435.887L479,97.113Z" style="fill:white;"/>
    </g>
    <g transform="matrix(1.09208,0,0,1.09208,-35.4761,-8.0428)">
        <g transform="matrix(409.337,0,0,409.337,56,424)">
            <path d="M0.089,-0.697L0.348,-0.697C0.367,-0.697 0.385,-0.696 0.403,-0.693C0.42,-0.691 0.437,-0.686 0.453,-0.68C0.469,-0.674 0.483,-0.666 0.496,-0.655C0.509,-0.644 0.52,-0.631 0.53,-0.614C0.54,-0.598 0.547,-0.578 0.552,-0.555C0.557,-0.532 0.56,-0.504 0.56,-0.473C0.56,-0.452 0.558,-0.434 0.555,-0.417C0.552,-0.401 0.547,-0.386 0.541,-0.374C0.536,-0.361 0.529,-0.35 0.522,-0.34C0.514,-0.331 0.507,-0.323 0.5,-0.316C0.482,-0.3 0.461,-0.289 0.439,-0.283L0.439,-0.282L0.586,0L0.452,0L0.322,-0.256L0.206,-0.256L0.206,0L0.089,0L0.089,-0.697ZM0.347,-0.366C0.408,-0.366 0.439,-0.404 0.439,-0.48C0.439,-0.5 0.437,-0.517 0.432,-0.531C0.428,-0.544 0.422,-0.556 0.413,-0.564C0.405,-0.572 0.395,-0.579 0.383,-0.582C0.372,-0.586 0.359,-0.588 0.344,-0.588L0.206,-0.588L0.206,-0.366L0.347,-0.366Z" style="fill:rgb(213,77,77);fill-rule:nonzero;"/>
        </g>
        <g transform="matrix(409.337,0,0,409.337,312.835,424)">
            <path d="M0.05,-0.068C0.05,-0.083 0.051,-0.096 0.053,-0.105C0.056,-0.115 0.059,-0.122 0.065,-0.128C0.071,-0.133 0.079,-0.137 0.088,-0.139C0.098,-0.141 0.11,-0.142 0.125,-0.142C0.139,-0.142 0.152,-0.141 0.162,-0.139C0.171,-0.137 0.179,-0.133 0.185,-0.128C0.19,-0.122 0.194,-0.115 0.196,-0.105C0.199,-0.096 0.2,-0.083 0.2,-0.068C0.2,-0.053 0.199,-0.041 0.196,-0.031C0.194,-0.021 0.19,-0.014 0.185,-0.008C0.179,-0.002 0.171,0.002 0.162,0.004C0.152,0.006 0.139,0.007 0.125,0.007C0.11,0.007 0.098,0.006 0.088,0.004C0.079,0.002 0.071,-0.002 0.065,-0.008C0.059,-0.014 0.056,-0.021 0.053,-0.031C0.051,-0.041 0.05,-0.053 0.05,-0.068Z" style="fill:rgb(213,77,77);fill-rule:nonzero;"/>
        </g>
    </g>
</svg>
